<svg width="268" height="151" viewBox="0 0 268 151" fill="none" xmlns="http://www.w3.org/2000/svg">
<g clip-path="url(#clip0_329_4482)">
<path d="M0 0H267.789V151H0V0Z" fill="#FDFDFE"/>
<path d="M38.0903 18.6159C38.5612 17.219 39.1939 13.8699 40.1748 13.0753C40.922 12.4699 46.434 12.6824 47.5656 12.6825L58.6809 12.6834L70.0938 12.6849C72.3325 12.6832 74.9119 12.6195 77.1188 12.7427C78.1917 12.8819 86.336 18.3141 87.5511 19.2317C87.6006 19.9575 87.5036 21.3882 88.3285 21.6142C89.1736 21.4665 91.945 21.3192 92.7342 21.3827C96.1277 21.6561 118.741 20.8404 120.086 21.7766C120.173 23.1436 120.231 25.2478 120.159 26.6261L120.289 26.654C123.449 27.2964 133.184 26.04 135.013 27.6044C135.689 28.7316 135.259 30.0934 135.43 31.3129C135.331 31.8845 135.44 31.7646 135.07 32.0863C134.484 32.2479 133.811 32.154 133.198 32.1095C132.383 34.8071 130.314 39.563 129.22 42.4357L125.063 53.1471C124.245 55.2628 123.326 57.8542 122.42 59.8781C124.707 59.8792 127.524 59.8149 129.756 60.006L129.752 63.3649C127.306 63.6921 121.216 63.689 118.547 63.689C118.558 64.5588 118.711 66.7721 118.188 67.3437C117.249 67.5474 116.112 67.5355 115.134 67.5637C113.14 67.6212 111.165 67.8536 109.18 67.9736C105.807 68.1772 102.41 68.1458 99.0283 68.2659C96.9449 68.3297 94.8621 68.4074 92.7798 68.4992C91.3386 68.5754 89.3134 68.7653 87.9175 68.6755C85.2564 69.0024 84.3215 73.166 81.9311 74.1258C81.6388 76.1373 81.815 81.4293 81.814 83.7533L81.805 103.561C81.8059 105.093 81.9226 110.295 81.7193 111.466C82.4718 111.567 84.9142 111.512 85.7661 111.512L94.2673 111.482C89.4131 106.737 88.8939 99.98 91.0727 93.7869C91.968 91.2428 95.6632 79.6998 97.1048 78.7444C97.8999 77.8871 97.6762 77.142 97.669 75.8513C97.6741 73.577 95.9451 74.5819 96.2103 73.2539C96.8511 73.117 96.6208 73.5975 97.4789 73.8821C97.7074 73.6591 97.7136 72.7655 97.7536 72.3584C96.9662 72.1024 95.7396 71.4351 95.0729 70.9393C94.8761 70.4399 94.9045 70.6586 95.0108 70.0889C95.6883 69.2031 97.6355 69.4913 98.502 69.9045L98.4782 70.0441C97.3721 70.1664 96.1923 70.1927 95.075 70.2362C95.6055 70.5667 97.6137 71.711 98.1764 71.7403C106.317 72.1667 114.535 71.8204 122.693 71.9493C125.732 71.9972 128.488 71.8593 131.517 71.6121C134.235 71.3766 145.247 70.5328 147.149 71.3036C150.362 72.6592 149.717 78.0825 149.657 81.0524C149.753 83.7962 150.368 100.845 149.902 102.063C149.604 102.232 149.592 102.235 149.248 102.267C148.26 102.365 147.547 102.409 146.609 102.072C146.145 94.9407 144.538 87.1715 143.809 80.0197C143.695 78.8984 142.826 78.2173 141.674 78.1856C139.845 78.1351 137.955 78.323 136.094 78.4475C133.483 78.638 130.867 78.7555 128.25 78.8L128.089 78.8928C130.184 81.6365 133.564 93.4156 134.615 97.0482C135.884 101.436 134.291 107.986 130.787 111.277C131.636 111.378 132.645 111.475 133.471 111.624C135.401 111.6 138.252 111.499 140.151 111.616L140.425 111.5C142.07 111.394 144.58 111.336 146.232 111.442L146.473 112.798L146.652 114.216C147.529 118.261 147.316 121.222 147.314 125.34C147.314 127.179 147.378 129.456 147.123 131.252C146.821 131.654 146.416 132.236 146.057 132.561C144.97 132.676 142.258 132.846 141.256 132.505C141.26 133.483 141.37 136.431 141.033 137.175C139.01 136.95 135.154 137.241 132.725 137.082C132.726 136.11 132.797 132.6 132.63 131.83C131.191 132.024 128.707 131.983 127.212 131.981L118.916 131.962L91.3246 131.973L57.7402 131.964L48.4096 131.954C46.9327 131.956 44.34 132.037 42.9343 131.891C42.682 132.814 42.7791 135.88 42.7961 137.051C41.9746 137.253 35.7423 137.141 34.4911 137.13C34.4774 136.114 34.4893 135.097 34.5269 134.081C34.5753 132.394 34.0394 132.518 32.4523 132.633C31.4018 132.709 30.7791 132.687 29.7667 132.506C28.5279 131.561 27.9659 130.243 28.0102 128.667C28.1034 125.353 27.8977 122.033 28.0748 118.723C28.1777 116.802 29.3761 115.239 31.1763 114.549C33.1427 113.796 34.8991 113.312 36.8945 113C39.2493 112.479 41.5751 112.068 43.9405 111.456C43.8569 95.6082 44.1958 79.1848 43.8869 63.4069C43.1872 63.42 40.6977 63.5551 40.3785 63.158C39.145 62.0582 41.083 59.1088 40.9512 58.5132C40.3527 55.8113 39.4664 51.1869 38.9134 48.5781L35.2535 31.2877C34.9783 29.9571 34.7006 28.7065 34.299 27.4081C34.0674 26.6602 33.7996 26.3203 33.6594 25.5585C33.615 24.499 33.4101 23.2422 33.9184 22.3642C34.6818 21.706 36.0757 21.9215 37.1544 21.9448C37.4548 20.832 37.7668 19.7223 38.0903 18.6159Z" fill="#9883CC"/>
<path d="M44.8011 63.4151L76.3573 63.4011C76.3987 65.2802 76.2129 73.2876 76.6645 74.4007C77.3 74.8394 79.8026 74.4114 80.6612 74.292L80.9516 74.3439L81.931 74.1258C81.6388 76.1373 81.815 81.4293 81.8139 83.7532L81.8049 103.561C81.8058 105.093 81.9226 110.295 81.7193 111.466C81.4841 111.45 81.4791 111.47 81.2444 111.524C81.1134 111.782 81.1156 111.862 81.0747 112.14C78.1646 113.763 76.567 115.853 72.9288 115.724C63.8028 115.4 53.982 116.246 44.9208 115.659C44.7019 114.187 44.7825 111.106 44.7855 109.518L44.8011 99.1672V63.4151Z" fill="#FDFDFE"/>
<path d="M80.9511 74.3439L81.9305 74.1258C81.6382 76.1373 81.8144 81.4293 81.8134 83.7533L81.8044 103.561C81.8053 105.093 81.9221 110.295 81.7187 111.466C81.4835 111.45 81.4785 111.47 81.2439 111.524C81.1128 111.782 81.115 111.862 81.0742 112.14C80.8691 111.228 80.968 102.97 80.9693 101.429L80.9511 74.3439Z" fill="#9883CC"/>
<path d="M119.364 26.6559L120.159 26.6261L120.29 26.654C123.449 27.2964 133.184 26.04 135.013 27.6044C135.689 28.7316 135.259 30.0934 135.431 31.3129C135.331 31.8845 135.44 31.7646 135.07 32.0863C134.484 32.2479 133.812 32.154 133.198 32.1095C132.383 34.8071 130.315 39.563 129.22 42.4357L125.063 53.1471C124.245 55.2628 123.327 57.8542 122.42 59.8781C124.707 59.8792 127.525 59.8149 129.756 60.006L129.753 63.3649C127.306 63.6921 121.216 63.689 118.547 63.689C118.558 64.5588 118.711 66.7721 118.188 67.3437C117.249 67.5474 116.112 67.5355 115.134 67.5637C113.14 67.6212 111.166 67.8536 109.18 67.9736C105.808 68.1772 102.41 68.1458 99.0285 68.2659C96.9452 68.3297 94.8623 68.4074 92.78 68.4992C91.3389 68.5754 89.3136 68.7653 87.9178 68.6755C85.2567 69.0024 84.3218 73.166 81.9313 74.1258L80.9519 74.3439L80.6615 74.292C79.8028 74.4115 77.3003 74.8394 76.6647 74.4007C76.2132 73.2877 76.399 65.2802 76.3576 63.4011L76.4003 62.8807C77.0459 62.3145 77.3862 62.9616 78.1079 62.5498C80.3685 62.4991 82.6288 62.4328 84.8883 62.3506C84.9193 61.4833 84.9118 60.8635 84.8672 59.9961L84.8167 59.8255L85.2256 59.2752C84.6769 58.4286 88.9015 38.3226 89.0351 35.7376C89.0603 35.2494 89.53 32.7009 89.687 32.1517L88.8134 32.1238L88.6756 31.632C88.7365 31.4387 88.7954 31.3231 88.8782 31.1408L89.3129 31.1681C89.3515 30.8805 89.3388 30.1568 89.3405 29.8297C89.2027 29.9479 89.2868 29.9052 89.0534 29.8909C88.8928 29.1491 89.2666 28.4417 89.3032 27.602L88.9551 27.5751L88.9699 27.3281L89.2163 27.4422L89.3642 27.2554L90.0599 26.975C90.9749 26.7564 96.1312 26.7566 97.3502 26.7375C104.687 26.5922 112.026 26.5651 119.364 26.6559Z" fill="#FDFDFE"/>
<path d="M89.6864 32.1516C90.1193 32.072 90.5267 31.9237 90.8827 32.3078L91.089 32.8701C91.6523 34.4971 92.4315 36.1828 93.0576 37.8088L98.78 52.5776C99.4959 54.4367 101.006 58.082 101.49 59.9094C99.9644 59.8896 95.8467 59.7317 94.6192 60.0955C94.0519 60.7473 94.3094 61.9216 94.1718 62.8213C93.1057 62.3959 86.7777 62.9865 85.7176 62.5006L85.6111 62.115C85.6754 61.0509 85.8502 60.1505 85.2249 59.2752C84.6762 58.4286 88.9008 38.3226 89.0344 35.7376C89.0596 35.2493 89.5293 32.7009 89.6864 32.1516Z" fill="#FDFDFE"/>
<path d="M119.363 26.6559L120.158 26.6261L120.289 26.654C123.448 27.2964 133.184 26.04 135.012 27.6044C135.688 28.7316 135.258 30.0934 135.43 31.3129L134.931 31.0066L134.7 31.1393C134.127 31.3011 132.959 31.2682 132.319 31.2753C131.984 31.3194 131.9 31.3095 131.612 31.4714L131.741 31.5304C131.91 31.6087 131.957 31.6432 132.11 31.7578L132.181 32.0216C131.112 32.2499 124.455 32.1049 122.906 32.1058L98.9502 32.117C98.0579 32.1158 92.4115 32.0384 91.8445 32.1938C91.4685 32.7357 91.6352 32.6591 91.0889 32.8701L90.8826 32.3078C90.5266 31.9237 90.1192 32.072 89.6862 32.1517L88.8127 32.1238L88.6748 31.632C88.7357 31.4387 88.7947 31.3231 88.8774 31.1408L89.3121 31.1681C89.3508 30.8805 89.3381 30.1568 89.3397 29.8297C89.202 29.9479 89.286 29.9052 89.0526 29.8909C88.892 29.1491 89.2658 28.4417 89.3024 27.602L88.9544 27.5751L88.9691 27.3281L89.2155 27.4422L89.3635 27.2554L90.0592 26.975C90.9742 26.7564 96.1304 26.7566 97.3495 26.7375C104.686 26.5922 112.025 26.5651 119.363 26.6559Z" fill="#FDFDFE"/>
<path d="M119.364 26.6559L120.159 26.6261L120.29 26.654C123.449 27.2964 133.184 26.04 135.013 27.6044C135.689 28.7316 135.259 30.0934 135.43 31.3129L134.931 31.0066L134.701 31.1393C134.682 30.3332 134.751 28.9243 134.503 28.2367C133.624 27.3766 123.801 27.6628 122.153 27.651L93.6814 27.6803C93.0861 27.6808 92.4688 27.6752 91.876 27.688C90.004 27.7284 89.309 27.8129 89.3404 29.8297C89.2027 29.9479 89.2867 29.9052 89.0533 29.8909C88.8927 29.1491 89.2665 28.4417 89.3031 27.602L88.9551 27.5751L88.9698 27.3281L89.2162 27.4422L89.3641 27.2554L90.0599 26.975C90.9749 26.7564 96.1311 26.7566 97.3502 26.7375C104.687 26.5922 112.026 26.5651 119.364 26.6559Z" fill="#9883CC"/>
<path d="M89.3641 27.2554L90.0599 26.975L90.1961 26.988C90.9263 27.0539 91.597 27.0219 92.3257 26.9992C92.0497 27.1625 91.2398 27.2776 90.8797 27.3441C91.3981 27.3878 94.849 27.4241 94.9408 27.4929C94.4744 27.5094 93.9928 27.4401 93.6814 27.6803C93.0861 27.6808 92.4688 27.6752 91.876 27.688C90.004 27.7284 89.309 27.8129 89.3404 29.8297C89.2027 29.9479 89.2867 29.9052 89.0533 29.8909C88.8927 29.1491 89.2665 28.4417 89.3031 27.602L88.9551 27.5751L88.9698 27.3281L89.2162 27.4422L89.3641 27.2554Z" fill="#9883CC"/>
<path d="M88.6748 31.632C88.7357 31.4387 88.7947 31.3231 88.8774 31.1408L89.3121 31.1681C89.9838 31.2088 90.5511 31.2417 91.229 31.2275C104.926 31.1157 118.623 31.1317 132.319 31.2753C131.984 31.3194 131.9 31.3095 131.612 31.4714L131.741 31.5304C131.91 31.6087 131.957 31.6432 132.11 31.7578L132.181 32.0216C131.112 32.2499 124.455 32.1049 122.906 32.1058L98.9502 32.117C98.0579 32.1158 92.4115 32.0384 91.8445 32.1938C91.4685 32.7357 91.6352 32.6591 91.0889 32.8701L90.8826 32.3078C90.5266 31.9237 90.1192 32.072 89.6862 32.1517L88.8127 32.1238L88.6748 31.632Z" fill="#9883CC"/>
<path d="M85.2256 59.2752C85.8508 60.1505 85.6761 61.0509 85.6118 62.115L85.7182 62.5006C86.7783 62.9865 93.1063 62.3959 94.1725 62.8213L94.1039 62.8979L94.1993 62.888L94.3189 63.2122C95.0758 63.3805 96.0371 63.3495 96.5292 63.53C97.2874 63.5496 98.4729 63.6147 99.1898 63.5456C103.282 63.7344 108.558 63.731 112.699 63.6517L117.807 63.6648L117.787 66.7756L103.647 67.3025C98.2938 67.4662 92.9988 67.5267 87.6556 67.8497C87.364 68.0034 87.1777 68.1006 86.9068 68.2867C87.3322 68.3886 87.5537 68.4151 87.9178 68.6755C85.2567 69.0024 84.3218 73.166 81.9313 74.1258L80.9519 74.3439L80.6615 74.292C79.8028 74.4115 77.3003 74.8394 76.6647 74.4007C76.2132 73.2877 76.399 65.2802 76.3576 63.4011L76.4003 62.8807C77.0459 62.3145 77.3862 62.9616 78.1079 62.5498C80.3685 62.4991 82.6288 62.4328 84.8883 62.3506C84.9193 61.4833 84.9118 60.8635 84.8672 59.9961L84.8167 59.8255L85.2256 59.2752Z" fill="#FDFDFE"/>
<path d="M85.2256 59.2752C85.8508 60.1505 85.6761 61.0509 85.6118 62.115C85.4624 62.4829 85.5326 62.6685 85.602 63.0413L85.4428 63.3045C83.6905 63.57 79.3267 63.1431 77.9933 63.4498L77.4582 63.5716C77.2192 64.1638 77.1564 73.1807 77.3616 73.796C77.9124 73.8647 78.0888 73.8536 78.6419 73.8147C78.9828 73.8626 80.5276 74.0838 80.6615 74.292C79.8028 74.4115 77.3003 74.8394 76.6647 74.4007C76.2132 73.2877 76.399 65.2802 76.3576 63.4011L76.4003 62.8807C77.0459 62.3145 77.3862 62.9616 78.1079 62.5498C80.3685 62.4991 82.6288 62.4328 84.8883 62.3506C84.9193 61.4833 84.9118 60.8635 84.8672 59.9961L84.8167 59.8255L85.2256 59.2752Z" fill="#9883CC"/>
<path d="M85.6082 68.1579C86.4452 67.9668 86.7795 67.8978 87.6553 67.8497C87.3638 68.0034 87.1774 68.1006 86.9065 68.2867C87.3319 68.3886 87.5534 68.4151 87.9175 68.6755C85.2564 69.0024 84.3215 73.166 81.931 74.1258L80.9516 74.3439L80.6612 74.292C80.5273 74.0838 78.9825 73.8626 78.6416 73.8147C78.9844 73.7893 80.0397 73.7185 80.2709 73.5807C82.46 72.2753 83.5171 70.0557 85.6082 68.1579Z" fill="#9883CC"/>
<path d="M77.9932 63.4498C79.3265 63.1431 83.6903 63.57 85.4426 63.3045L85.6019 63.0413C85.5324 62.6685 85.4622 62.4829 85.6116 62.115L85.7181 62.5006C86.7781 62.9865 93.1061 62.3959 94.1723 62.8213L94.1037 62.8978L94.1991 62.8879L94.3187 63.2122C95.0756 63.3805 96.0369 63.3495 96.529 63.53C92.5173 63.5652 88.5054 63.5692 84.4937 63.5422C82.7442 63.5388 79.6531 63.6211 77.9932 63.4498Z" fill="#9883CC"/>
<path d="M134.701 31.1393L134.931 31.0066L135.43 31.3129C135.331 31.8845 135.44 31.7646 135.069 32.0863C134.484 32.2479 133.811 32.154 133.197 32.1095C132.383 34.8071 130.314 39.563 129.219 42.4357L125.063 53.1471C124.245 55.2628 123.326 57.8542 122.42 59.8781C124.706 59.8792 127.524 59.8149 129.756 60.006L129.752 63.3649C127.306 63.6921 121.216 63.689 118.546 63.689C118.558 64.5588 118.711 66.7721 118.187 67.3437C117.249 67.5474 116.112 67.5355 115.134 67.5637C113.14 67.6212 111.165 67.8536 109.18 67.9736C105.807 68.1772 102.41 68.1458 99.028 68.2659C96.9447 68.3297 94.8618 68.4074 92.7795 68.4992C91.3383 68.5754 89.3131 68.7653 87.9172 68.6755C87.5532 68.4151 87.3317 68.3886 86.9062 68.2867C87.1771 68.1006 87.3635 68.0034 87.6551 67.8497C92.9983 67.5266 98.2933 67.4662 103.647 67.3025L117.787 66.7756L117.807 63.6648L112.698 63.6517C108.557 63.731 103.281 63.7344 99.1893 63.5456C98.4723 63.6147 97.2869 63.5496 96.5287 63.53C96.0366 63.3495 95.0753 63.3805 94.3184 63.2122L94.1988 62.888L94.1034 62.8979L94.172 62.8213C94.3095 61.9217 94.0521 60.7473 94.6193 60.0955C95.8468 59.7317 99.9645 59.8897 101.49 59.9094C101.007 58.0821 99.496 54.4367 98.7801 52.5777L93.0577 37.8088C92.4316 36.1828 91.6524 34.4972 91.0891 32.8701C91.6355 32.6591 91.4687 32.7357 91.8447 32.1938C91.9432 33.2367 93.684 37.346 94.1755 38.6071L99.3092 51.8772C100.195 54.1791 101.618 57.5937 102.214 59.8753C108.55 60.0253 115.259 59.8535 121.655 59.906C123.829 53.4761 126.73 47.0412 129.08 40.6578C130.093 37.9057 131.19 34.9547 132.339 32.2743L132.181 32.0216L132.11 31.7578C131.957 31.6432 131.91 31.6087 131.741 31.5304L131.612 31.4714C131.9 31.3095 131.984 31.3194 132.319 31.2753C132.959 31.2682 134.127 31.3011 134.701 31.1393Z" fill="#9883CC"/>
<path d="M94.9498 60.7695C106.174 60.7735 117.871 60.9524 129.061 60.7325C129.072 61.3787 129.069 62.089 129.113 62.7287C126.881 62.8281 123.414 62.7123 121.442 62.944C116.144 62.8652 109.845 62.8192 104.552 62.9427C101.557 62.7415 97.7303 63.0074 94.9443 62.6936L94.9498 60.7695Z" fill="#FDFDFE"/>
<path d="M104.553 62.9427C109.846 62.8193 116.145 62.8653 121.443 62.944C121.978 62.9922 125.31 63.218 125.484 63.32C123.967 63.4007 112.978 63.4486 112.698 63.6517C108.558 63.731 103.281 63.7344 99.1895 63.5456C98.958 63.2926 98.9268 63.3718 98.4922 63.3513L98.4974 63.2552C99.419 62.8866 103.138 63.1114 104.553 62.9427Z" fill="#9883CC"/>
<path d="M140.425 111.499C142.071 111.394 144.58 111.336 146.232 111.442L146.473 112.798L146.652 114.216C147.529 118.261 147.316 121.222 147.314 125.34C147.314 127.179 147.379 129.456 147.123 131.252C146.821 131.654 146.416 132.236 146.057 132.561C144.97 132.676 142.258 132.846 141.256 132.505C141.26 133.483 141.37 136.431 141.033 137.175C139.01 136.95 135.154 137.241 132.726 137.082C132.727 136.11 132.797 132.6 132.63 131.83C131.191 132.024 128.707 131.983 127.212 131.981L118.916 131.962L91.3247 131.973L57.7403 131.964L48.4097 131.953C46.9328 131.956 44.3401 132.037 42.9344 131.891C42.8767 131.665 42.9641 131.518 43.0532 131.316L42.6151 131.221L42.5586 131.107C40.3121 131.002 37.5317 131.077 35.2457 131.077C35.1326 130.451 34.9582 129.371 35.2668 128.807L35.0986 128.674L34.329 129.075C34.2763 125.314 34.1513 121.419 34.3735 117.663C34.4378 116.576 34.7389 115.77 35.3432 114.861L35.7437 115.041C35.7077 115.335 35.689 115.4 35.5964 115.682C36.1681 115.048 42.7782 112.613 43.9355 112.226L43.9765 115.756C42.9591 116.31 41.8209 116.826 41.0085 117.624L40.9155 117.966C41.4239 118.549 41.8785 118.433 42.6226 118.427L42.5737 118.29C42.6354 117.994 42.6484 117.999 42.5924 117.71C53.0317 117.541 63.8157 117.689 74.2868 117.683L86.4638 117.674C88.4362 117.673 91.2824 117.596 93.2001 117.728C93.6734 117.769 94.1757 117.822 94.6473 117.832C97.1007 118.399 128.822 118.297 131.718 117.741C131.397 117.672 131.363 117.665 131.074 117.515L131.064 117.007C134.047 116.427 133.383 115.142 133.145 112.61L133.062 112.508C133.159 112.232 133.339 111.895 133.471 111.624C135.401 111.6 138.252 111.499 140.151 111.616L140.425 111.499Z" fill="#FDFDFE"/>
<path d="M140.464 127.004L140.696 127.128C140.776 127.567 140.751 128.768 140.6 129.146C140.552 131.373 140.677 134.407 140.534 136.466C140.636 136.858 140.721 136.906 141.033 137.175C139.009 136.95 135.153 137.241 132.725 137.082C132.726 136.11 132.796 132.6 132.629 131.83C131.191 132.024 128.706 131.983 127.212 131.981L118.916 131.962L91.3242 131.973L57.7398 131.964L48.4092 131.954C46.9323 131.956 44.3396 132.037 42.9339 131.891C42.8762 131.665 42.9637 131.518 43.0527 131.316L42.6146 131.222L42.5581 131.107C40.3116 131.002 37.5312 131.077 35.2453 131.077C35.1322 130.451 34.9577 129.371 35.2663 128.807C38.1292 128.878 40.6919 128.255 43.2018 129.513L43.1977 128.818C45.8464 129.091 49.6612 128.893 52.3849 128.952C53.5792 128.95 57.6924 129.108 58.3816 128.566C58.6102 128.356 59.1013 128.23 59.4156 128.125C61.0384 127.947 65.2512 128.059 67.0831 128.06L82.3891 128.065L121.07 128.065C127.308 128.064 134.032 128.2 140.21 128.068C140.523 127.732 140.426 127.567 140.464 127.004Z" fill="#FDFDFE"/>
<path d="M42.5586 131.107C49.655 131.031 56.752 131.014 63.8487 131.053L103.153 131.06L122.31 131.058C123.791 131.06 129.21 130.94 130.277 131.091C131.228 131.322 132.242 131.123 132.798 131.513L132.63 131.83C131.191 132.024 128.707 131.983 127.212 131.981L118.916 131.962L91.3247 131.973L57.7403 131.964L48.4097 131.953C46.9327 131.956 44.3401 132.037 42.9343 131.891C42.8767 131.665 42.9641 131.518 43.0532 131.316L42.6151 131.222L42.5586 131.107Z" fill="#9883CC"/>
<path d="M140.464 127.004L140.696 127.128C140.776 127.567 140.751 128.768 140.6 129.146L140.445 128.861L86.27 128.876C77.4959 128.875 67.8232 128.651 59.1444 128.885C58.5149 129.319 58.3854 129.419 57.6497 129.589C57.5751 129.521 57.1612 129.135 57.1175 129.124C56.1281 128.873 53.112 129.38 52.3848 128.952C53.5791 128.95 57.6922 129.108 58.3814 128.566C58.61 128.356 59.1012 128.23 59.4154 128.125C61.0382 127.947 65.251 128.059 67.0829 128.06L82.3889 128.065L121.07 128.065C127.308 128.064 134.031 128.2 140.21 128.068C140.523 127.732 140.426 127.567 140.464 127.004Z" fill="#9883CC"/>
<path d="M140.445 128.861L140.6 129.146C140.552 131.373 140.677 134.407 140.534 136.466C140.636 136.858 140.721 136.906 141.033 137.175C139.009 136.95 135.153 137.241 132.725 137.082C132.726 136.11 132.796 132.6 132.629 131.83L132.797 131.513C132.242 131.123 131.227 131.322 130.276 131.091C133.553 131.041 137.15 130.983 140.403 131.106C140.412 130.358 140.426 129.609 140.445 128.861Z" fill="#FDFDFE"/>
<path d="M140.445 128.861L140.6 129.146C140.552 131.373 140.677 134.407 140.534 136.466C140.636 136.858 140.721 136.906 141.033 137.175C139.009 136.95 135.153 137.241 132.725 137.082C133.142 137.017 133.498 137.014 133.806 136.75L133.722 136.469C135.166 136.27 138.861 136.39 140.424 136.419L140.41 132.001C139.122 131.917 134.533 132.055 133.704 131.832C133.578 131.388 133.68 131.539 133.325 131.257C132.924 131.293 133.064 131.223 132.797 131.513C132.242 131.123 131.227 131.322 130.276 131.091C133.553 131.041 137.15 130.983 140.403 131.106C140.412 130.358 140.426 129.609 140.445 128.861Z" fill="#9883CC"/>
<path d="M132.798 131.513C133.065 131.223 132.925 131.293 133.325 131.257C133.681 131.539 133.579 131.388 133.704 131.832C133.59 132.705 133.478 135.664 133.722 136.469L133.806 136.75C133.498 137.014 133.142 137.017 132.726 137.082C132.727 136.11 132.797 132.6 132.63 131.83L132.798 131.513Z" fill="#9883CC"/>
<path d="M43.1982 128.818C45.8469 129.091 49.6617 128.893 52.3855 128.952C53.1128 129.38 56.1288 128.873 57.1183 129.124C57.1619 129.135 57.5758 129.521 57.6504 129.589C54.9062 129.74 45.715 129.871 43.2024 129.513L43.1982 128.818Z" fill="#9883CC"/>
<path d="M140.425 111.499C142.07 111.394 144.58 111.336 146.231 111.442L146.472 112.798L146.652 114.216C147.529 118.261 147.315 121.222 147.314 125.34C147.313 127.179 147.378 129.456 147.122 131.252C146.821 131.654 146.416 132.236 146.057 132.561C144.969 132.676 142.258 132.846 141.255 132.505C141.26 133.483 141.37 136.431 141.033 137.175C140.721 136.906 140.636 136.858 140.534 136.466C140.677 134.407 140.552 131.373 140.6 129.146C140.752 128.768 140.776 127.567 140.696 127.128L140.464 127.004C140.261 124.886 140.567 121.574 140.433 119.336C140.4 118.779 140.452 118.723 140.124 118.421L140.28 118.276L140.162 117.947L140.399 117.675C140.413 115.969 140.221 114.293 140.236 112.513C140.21 112.428 139.946 111.945 139.887 111.833L140.151 111.616L140.425 111.499Z" fill="#FDFDFE"/>
<path d="M140.151 111.616L140.425 111.499L140.811 111.856C140.758 112.033 140.707 112.211 140.657 112.388L140.85 112.337C141.538 116.559 141.125 122.815 141.235 127.191C141.266 128.413 141.134 130.824 141.28 131.901C140.874 132.124 140.917 132.016 140.792 132.352C141.045 132.573 140.899 132.516 141.255 132.505C141.26 133.483 141.37 136.431 141.033 137.175C140.721 136.906 140.636 136.858 140.534 136.466C140.677 134.407 140.552 131.373 140.6 129.146C140.752 128.768 140.776 127.567 140.696 127.128L140.464 127.004C140.261 124.886 140.567 121.574 140.433 119.336C140.4 118.779 140.452 118.723 140.124 118.421L140.28 118.276L140.162 117.947L140.399 117.675C140.413 115.969 140.221 114.293 140.236 112.513C140.21 112.428 139.946 111.945 139.887 111.833L140.151 111.616Z" fill="#9883CC"/>
<path d="M146.652 114.216C147.529 118.261 147.315 121.222 147.314 125.34C147.313 127.179 147.378 129.456 147.122 131.252C146.821 131.654 146.416 132.236 146.057 132.561C145.879 132.24 145.832 132.178 145.745 131.826C147.125 129.991 146.168 121.522 146.371 118.895C146.418 118.283 146.185 116.69 146.16 115.927C146.301 115.256 146.427 114.867 146.652 114.216Z" fill="#9883CC"/>
<path d="M140.425 111.499C142.07 111.394 144.579 111.336 146.231 111.442L146.472 112.798C146.273 113.169 146.17 113.416 145.869 113.718C145.792 113.182 145.79 112.636 145.467 112.285C144.227 112.158 142.155 112.291 140.85 112.337L140.656 112.388C140.707 112.211 140.758 112.033 140.811 111.856L140.425 111.499Z" fill="#9883CC"/>
<path d="M141.28 131.901C142.512 131.753 144.454 131.819 145.745 131.826C145.832 132.178 145.879 132.24 146.057 132.561C144.969 132.676 142.258 132.846 141.255 132.505C140.898 132.516 141.045 132.573 140.792 132.352C140.917 132.016 140.874 132.124 141.28 131.901Z" fill="#9883CC"/>
<path d="M146.473 112.798L146.653 114.216C146.428 114.867 146.301 115.256 146.161 115.927C146.033 115.364 145.942 114.324 145.87 113.718C146.17 113.416 146.273 113.169 146.473 112.798Z" fill="#9883CC"/>
<path d="M58.8458 120.896C59.8904 122.66 58.8136 127.151 59.4163 128.125C59.1021 128.23 58.6109 128.356 58.3823 128.566C57.6931 129.108 53.5799 128.95 52.3857 128.952C49.6619 128.893 45.8471 129.091 43.1984 128.818L43.0172 128.621C42.7588 127.465 42.8234 122.808 42.9884 121.546C46.7468 121.17 52.4433 121.53 56.3944 121.424C57.6435 121.102 57.5729 121.729 58.8458 120.896Z" fill="#FDFDFE"/>
<path d="M58.8449 120.896C59.8896 122.66 58.8128 127.151 59.4155 128.125C59.1012 128.23 58.61 128.356 58.3815 128.566C58.421 127.406 58.6121 122.396 58.1553 121.657C57.6658 121.392 56.9682 121.436 56.3936 121.424C57.6427 121.102 57.5721 121.729 58.8449 120.896Z" fill="#9883CC"/>
<path d="M45.496 122.819C46.2393 122.092 54.4162 122.333 55.8545 122.426C55.9653 124.125 56.0399 125.974 55.8906 127.669C53.5532 127.778 47.8627 127.926 45.6847 127.678C45.3173 126.905 45.4697 123.843 45.496 122.819Z" fill="#FDFDFE"/>
<path d="M45.4961 122.819C46.2394 122.092 54.4163 122.333 55.8546 122.426C55.9654 124.125 56.04 125.974 55.8908 127.669C53.5534 127.778 47.8628 127.926 45.6848 127.678C46.0674 127.594 46.1865 127.59 46.485 127.344C47.7077 127.224 47.7483 127.457 49.1785 127.155C50.8939 127.046 53.4307 127.109 55.209 127.098L55.1673 123.151C52.2573 123.148 49.5261 123.295 46.5823 123.191C46.1754 122.728 46.0556 122.826 45.4961 122.819Z" fill="#9883CC"/>
<path d="M45.496 122.819C46.0554 122.826 46.1753 122.728 46.5822 123.191L46.4425 123.298L46.4313 123.794C46.5536 123.867 46.5977 123.919 46.7195 123.931C47.5438 123.867 48.141 123.827 48.976 123.84C49.076 124.84 49.1272 125.834 48.9476 126.831L49.1784 127.155C47.7481 127.457 47.7076 127.224 46.4848 127.344C46.1864 127.59 46.0672 127.594 45.6847 127.678C45.3173 126.905 45.4697 123.843 45.496 122.819Z" fill="#9883CC"/>
<path d="M45.496 122.819C46.0554 122.826 46.1753 122.728 46.5822 123.191L46.4425 123.298C46.1882 123.869 46.1299 126.809 46.4848 127.344C46.1864 127.59 46.0672 127.594 45.6847 127.678C45.3173 126.905 45.4697 123.843 45.496 122.819Z" fill="#9883CC"/>
<path d="M46.485 127.344C46.1301 126.809 46.1883 123.869 46.4427 123.298L46.4315 123.794C46.5538 123.867 46.5979 123.919 46.7197 123.931C47.3769 125.846 46.1493 127.029 48.9478 126.831L49.1786 127.155C47.7483 127.457 47.7078 127.224 46.485 127.344Z" fill="#9883CC"/>
<path d="M47.7554 124.304C48.0904 124.364 48.124 124.388 48.3738 124.621C48.5494 125.048 48.3728 125.697 48.2868 126.172C47.3978 126.148 47.5342 124.876 47.7554 124.304Z" fill="#FDFDFE"/>
<path d="M133.47 111.624C135.4 111.6 138.251 111.499 140.151 111.616L139.887 111.833C139.946 111.945 140.21 112.428 140.236 112.513C140.221 114.293 140.413 115.969 140.399 117.675L140.162 117.947L140.28 118.276L140.124 118.421L42.6222 118.427L42.5732 118.29C42.635 117.994 42.648 117.999 42.592 117.71C53.0313 117.541 63.8153 117.689 74.2863 117.683L86.4634 117.674C88.4358 117.673 91.282 117.596 93.1997 117.728C93.673 117.769 94.1753 117.822 94.6469 117.832C97.1003 118.399 128.822 118.297 131.718 117.741C131.397 117.672 131.363 117.665 131.073 117.515L131.063 117.007C134.047 116.427 133.383 115.142 133.144 112.61L133.061 112.508C133.158 112.232 133.338 111.895 133.47 111.624Z" fill="#9883CC"/>
<path d="M133.471 111.624C135.401 111.6 138.252 111.499 140.151 111.616L139.887 111.833C139.946 111.945 140.21 112.428 140.236 112.513C140.221 114.293 140.413 115.969 140.399 117.675C138.675 117.672 133.222 117.535 131.718 117.741C131.397 117.672 131.363 117.665 131.074 117.515L131.063 117.007C134.047 116.427 133.383 115.142 133.145 112.61L133.061 112.508C133.158 112.232 133.339 111.895 133.471 111.624Z" fill="#FDFDFE"/>
<path d="M133.471 111.624C135.401 111.6 138.252 111.499 140.151 111.616L139.887 111.833C139.946 111.945 140.21 112.428 140.237 112.513C137.965 112.547 135.372 112.5 133.145 112.61L133.062 112.508C133.159 112.232 133.339 111.895 133.471 111.624Z" fill="#9883CC"/>
<path d="M42.0166 128.171C42.0999 126.524 41.5779 121.871 42.8306 120.883C44.1766 120.429 57.608 120.414 58.845 120.896C57.5721 121.729 57.6428 121.102 56.3936 121.424C52.4426 121.53 46.746 121.17 42.9877 121.546C42.8226 122.808 42.7581 127.465 43.0164 128.621C42.8142 128.407 42.3975 128.355 42.0166 128.171Z" fill="#9883CC"/>
<path d="M35.3432 114.861L35.7437 115.041C35.7077 115.335 35.689 115.4 35.5964 115.682C34.8011 118.419 35.1121 124.937 35.0975 128.054C36.6143 128.054 40.6761 127.971 42.0171 128.171C42.398 128.355 42.8148 128.407 43.0169 128.621L43.1982 128.818L43.2023 129.513C40.6924 128.255 38.1296 128.878 35.2668 128.807L35.0986 128.674L34.329 129.075C34.2763 125.314 34.1513 121.419 34.3735 117.663C34.4378 116.576 34.7389 115.77 35.3432 114.861Z" fill="#9883CC"/>
<path d="M38.0902 18.6159C38.561 17.219 39.1938 13.8699 40.1747 13.0753C40.9219 12.4699 46.4338 12.6824 47.5654 12.6825L58.6807 12.6834L70.0936 12.6849C72.3324 12.6832 74.9117 12.6195 77.1186 12.7427C78.1916 12.8819 86.3358 18.3141 87.5509 19.2317C87.6005 19.9575 87.5034 21.3882 88.3283 21.6142L88.1941 21.7683C87.7249 21.9429 87.6469 21.9798 87.1466 21.8487C86.9966 21.5988 87.0354 21.739 87.0903 21.4037C86.089 21.7023 83.5929 21.2926 82.8401 21.606L82.8101 21.6956C82.699 22.0181 82.6953 22.0588 82.4952 22.3237C81.2903 22.1 78.2902 21.7949 76.9025 21.836C76.8197 21.8384 76.6332 21.566 76.6102 21.543L76.2803 22.0116L76.0432 21.8114C75.3286 22.0273 69.05 21.9341 67.9904 21.9065C58.0691 21.6479 47.8208 22.2498 37.9316 21.8213C38.3715 20.7047 38.5566 20.1194 38.8437 18.9539L38.3187 18.9278L38.0902 18.6159Z" fill="#FDFDFE"/>
<path d="M77.1183 12.7427C78.1912 12.8819 86.3355 18.3141 87.5506 19.2317C87.6001 19.9575 87.5031 21.3882 88.328 21.6142L88.1938 21.7683C87.7246 21.9429 87.6465 21.9798 87.1462 21.8487C86.9962 21.5988 87.035 21.739 87.0899 21.4037C86.0886 21.7023 83.5925 21.2926 82.8398 21.606L82.8097 21.6956C82.6986 22.0181 82.695 22.0588 82.4948 22.3237C81.2899 22.1 78.2899 21.7949 76.9021 21.836C76.8194 21.8384 76.6328 21.566 76.6098 21.543C76.2969 19.5347 75.3169 15.1038 75.1979 13.3837L75.5921 13.3402L75.5132 13.2361L74.9832 13.2746L74.6227 13.7756C74.6936 13.3541 74.7409 13.4467 74.6016 13.1075C75.5957 12.9706 76.012 13.0287 77.0115 12.9996L77.1183 12.7427Z" fill="#FDFDFE"/>
<path d="M77.1183 12.7427C78.1912 12.8819 86.3355 18.3141 87.5506 19.2317C87.6001 19.9575 87.5031 21.3882 88.328 21.6142L88.1938 21.7683C87.7246 21.9429 87.6465 21.9798 87.1462 21.8487C86.9962 21.5988 87.035 21.739 87.0899 21.4037L86.8252 19.5493C83.6518 18.0703 80.412 14.9801 77.1252 13.6767C76.9003 13.5875 75.6496 13.4714 75.1979 13.3837L75.5921 13.3402L75.5132 13.2361L74.9832 13.2746L74.6227 13.7756C74.6936 13.3541 74.7409 13.4467 74.6016 13.1075C75.5957 12.9706 76.012 13.0287 77.0115 12.9996L77.1183 12.7427Z" fill="#9883CC"/>
<path d="M38.0898 18.6159C38.5607 17.219 39.1934 13.8699 40.1743 13.0753C40.9215 12.4699 46.4335 12.6824 47.5651 12.6825L58.6804 12.6834L70.0933 12.6849C72.332 12.6832 74.9114 12.6195 77.1183 12.7427L77.0116 12.9996C76.0121 13.0287 75.5958 12.9706 74.6016 13.1075C74.741 13.4467 74.6936 13.3541 74.6227 13.7756L74.9832 13.2746L75.5132 13.2361L75.5921 13.3402L75.1979 13.3837C75.3169 15.1038 76.297 19.5347 76.6099 21.543L76.28 22.0116L76.0429 21.8114C75.4992 19.2675 74.794 16.0026 74.3893 13.5195C73.0817 13.4398 71.2106 13.5172 69.8398 13.52L60.8072 13.5225C58.4894 13.5227 41.5165 13.3196 40.5399 13.8561C39.7031 14.7965 39.1971 17.563 38.8434 18.9539L38.3184 18.9278L38.0898 18.6159Z" fill="#9883CC"/>
<path d="M38.0903 18.6159L38.3188 18.9278L38.8438 18.9539C38.5567 20.1194 38.3716 20.7047 37.9317 21.8213C47.8209 22.2498 58.0691 21.6479 67.9905 21.9065C69.0501 21.9341 75.3287 22.0273 76.0433 21.8114L76.2804 22.0116L76.6103 21.543C76.6333 21.566 76.8198 21.8384 76.9026 21.836C78.2903 21.7949 81.2904 22.1 82.4953 22.3237C82.6954 22.0588 82.6991 22.0181 82.8101 21.6956L82.8402 21.606C83.593 21.2926 86.0891 21.7023 87.0903 21.4037C87.0355 21.739 86.9967 21.5987 87.1467 21.8487C87.647 21.9798 87.725 21.9429 88.1942 21.7683L88.3284 21.6142C89.1735 21.4665 91.9449 21.3192 92.7341 21.3827C96.1276 21.6561 118.741 20.8404 120.086 21.7766C120.173 23.1435 120.231 25.2478 120.159 26.6261L119.363 26.6559C112.026 26.5651 104.687 26.5922 97.3499 26.7375C96.1309 26.7566 90.9746 26.7563 90.0596 26.975L89.3639 27.2553L89.216 27.4422L88.9696 27.328L88.9548 27.575L89.3029 27.602C89.2663 28.4417 88.8925 29.149 89.053 29.8909C89.2865 29.9052 89.2024 29.9478 89.3402 29.8297C89.3385 30.1568 89.3512 30.8805 89.3126 31.1681L88.8779 31.1408C88.7951 31.3231 88.7362 31.4387 88.6753 31.632C88.5785 31.0419 88.6005 30.9308 88.686 30.3392C88.9172 29.2304 89.0435 27.9527 88.6577 26.892C88.6216 27.419 88.6009 28.2579 88.3075 28.6623C86.397 28.138 83.3361 26.0425 81.039 25.8001C79.8752 25.6772 78.3484 25.7359 77.1552 25.7378L69.4079 25.7511L44.0015 25.7496C42.447 25.7567 35.5582 25.9006 34.464 25.6678C33.9482 25.7425 34.1598 25.7651 33.6593 25.5585C33.615 24.499 33.41 23.2422 33.9183 22.3642C34.6817 21.706 36.0756 21.9215 37.1543 21.9448C37.4547 20.8319 37.7667 19.7223 38.0903 18.6159Z" fill="#FDFDFE"/>
<path d="M120.086 21.7766C120.173 23.1435 120.231 25.2478 120.159 26.6261L119.363 26.6559C112.026 26.5651 104.687 26.5922 97.3499 26.7375C96.1309 26.7566 90.9746 26.7563 90.0596 26.975L89.3639 27.2553C89.2521 27.0162 89.2868 26.6586 89.2885 26.3825C88.998 25.6458 84.2358 23.4422 82.9756 22.6314C84.4798 22.2834 90.3076 22.3866 92.1223 22.3854L109.78 22.3779L115.933 22.3647C116.768 22.3573 118.73 22.2843 119.473 22.3902C119.812 22.2204 119.865 22.0907 120.086 21.7766Z" fill="#FDFDFE"/>
<path d="M120.086 21.7766C120.173 23.1435 120.231 25.2478 120.159 26.6261L119.363 26.6559C119.439 25.3065 119.416 23.7791 119.473 22.3902C119.812 22.2204 119.865 22.0907 120.086 21.7766Z" fill="#9883CC"/>
<path d="M38.0903 18.6159L38.3188 18.9278L38.8438 18.9539C38.5567 20.1194 38.3716 20.7047 37.9317 21.8213C47.8209 22.2498 58.0691 21.6479 67.9905 21.9065C69.0501 21.9341 75.3287 22.0273 76.0433 21.8114L76.2804 22.0116L76.6103 21.543C76.6333 21.566 76.8198 21.8384 76.9026 21.836C78.2903 21.7949 81.2904 22.1 82.4953 22.3237C82.6954 22.0588 82.6991 22.0181 82.8101 21.6956L82.8402 21.606C83.593 21.2926 86.0891 21.7023 87.0903 21.4037C87.0355 21.739 86.9967 21.5987 87.1467 21.8487C87.647 21.9798 87.725 21.9429 88.1942 21.7683L88.3284 21.6142C89.1735 21.4665 91.9449 21.3192 92.7341 21.3827C96.1276 21.6561 118.741 20.8404 120.086 21.7766C119.865 22.0907 119.812 22.2204 119.473 22.3902C118.73 22.2843 116.768 22.3573 115.933 22.3647L109.78 22.3779L92.1223 22.3855C90.3077 22.3866 84.4798 22.2834 82.9756 22.6314C84.2358 23.4422 88.998 25.6458 89.2885 26.3825C89.2868 26.6586 89.2521 27.0162 89.3639 27.2553L89.216 27.4422L88.9696 27.328L88.9548 27.575L89.3029 27.602C89.2663 28.4417 88.8925 29.149 89.053 29.8909C89.2865 29.9052 89.2024 29.9478 89.3402 29.8297C89.3385 30.1568 89.3512 30.8805 89.3126 31.1681L88.8779 31.1408C88.7951 31.3231 88.7362 31.4387 88.6753 31.632C88.5785 31.0419 88.6005 30.9308 88.686 30.3392C88.9172 29.2304 89.0435 27.9527 88.6577 26.892L88.4691 26.5648C87.0666 25.7263 82.9949 23.571 81.5237 23.0614C80.7873 22.8063 76.3642 22.8786 75.3479 22.8846L66.2099 22.9097L46.3233 22.8986C42.4576 22.8921 38.3066 22.796 34.4773 22.9417L34.464 25.6678C33.9482 25.7425 34.1598 25.7651 33.6593 25.5585C33.615 24.499 33.41 23.2422 33.9183 22.3642C34.6817 21.706 36.0756 21.9215 37.1543 21.9448C37.4547 20.8319 37.7667 19.7223 38.0903 18.6159Z" fill="#9883CC"/>
<path d="M82.0312 26.7496C83.0825 27.2387 88.307 29.242 88.5801 29.9776C88.624 30.0961 88.6557 30.2168 88.6863 30.3392C88.6007 30.9308 88.5788 31.0419 88.6755 31.632L88.8134 32.1238C88.5683 34.7999 87.8917 37.3899 87.4797 40.0262C86.6497 45.337 85.5666 50.5894 84.7258 55.8974C84.5448 57.0392 84.3123 58.1745 83.9913 59.2862C81.9563 59.2889 79.5661 59.2292 77.5615 59.3035L77.5994 58.3345C78.5893 52.301 79.3684 45.9278 80.2199 39.8674C80.6051 37.1267 81.6932 31.8299 81.6682 29.1859L82.0312 26.7496Z" fill="#FDFDFE"/>
<path d="M131.517 71.612C134.235 71.3765 145.247 70.5328 147.149 71.3036C150.362 72.6592 149.717 78.0825 149.657 81.0523C149.548 80.7002 149.439 80.3177 149.306 79.976C149.288 81.788 149.207 83.599 149.061 85.4052C148.94 90.0857 149.22 96.7002 149.335 101.59C148.807 101.605 147.877 101.598 147.395 101.715L147.264 100.554C147.29 100.026 147.193 99.0721 147.108 98.5443C146.14 92.4784 145.632 86.3602 144.635 80.3043C144.327 78.4333 143.395 77.6341 141.479 77.4676C139.714 77.3741 137.778 77.5417 136.017 77.6565L127.426 78.2108L127.245 77.7407C127.292 76.9205 127.113 74.5018 127.051 73.6202C127.085 73.2579 127.079 73.227 127.232 72.9032C128.016 72.4511 130.606 72.5042 131.742 72.403C132.04 72.0584 132.496 72.0294 132.95 71.941C132.785 71.9562 132.626 71.9817 132.465 72.0173L132.45 71.7719L131.517 71.612Z" fill="#FDFDFE"/>
<path d="M131.517 71.612C134.235 71.3765 145.247 70.5328 147.148 71.3036C150.361 72.6592 149.717 78.0825 149.657 81.0523C149.547 80.7002 149.438 80.3177 149.306 79.976C149.288 81.788 149.207 83.599 149.061 85.4052C148.527 81.7989 149.605 77.0752 148.313 73.5351C148.03 72.7568 147.353 72.3408 146.682 71.8987C144.484 71.665 140.968 72.0434 138.674 72.1512C136.357 72.26 134.051 72.3078 131.742 72.403C132.039 72.0584 132.496 72.0294 132.95 71.941C132.785 71.9562 132.626 71.9817 132.464 72.0173L132.45 71.7719L131.517 71.612Z" fill="#9883CC"/>
<path d="M97.7535 72.3583C96.9661 72.1023 95.7395 71.4351 95.0728 70.9393C94.876 70.4399 94.9044 70.6586 95.0107 70.0889C95.6882 69.2031 97.6354 69.4913 98.5019 69.9044L98.4781 70.0441C97.372 70.1663 96.1922 70.1927 95.0749 70.2362C95.6054 70.5667 97.6136 71.711 98.1763 71.7403C106.317 72.1666 114.535 71.8204 122.693 71.9493C125.732 71.9972 128.488 71.8593 131.517 71.612L132.45 71.7719L132.464 72.0173C132.626 71.9817 132.785 71.9562 132.95 71.941C132.496 72.0294 132.04 72.0584 131.742 72.403C130.606 72.5042 128.015 72.4511 127.232 72.9032C127.079 73.227 127.085 73.2579 127.051 73.6202L126.755 73.0583C126.528 72.9672 126.529 72.9784 126.282 72.9691C126.239 74.419 126.327 75.6345 126.423 77.0736C126.445 77.6352 126.553 77.7287 126.278 78.0983C122.902 78.419 100.517 78.749 98.347 77.9427L98.0456 77.8613C97.7351 77.4176 97.894 76.7238 97.6994 75.9673L97.6689 75.8512C97.674 73.577 95.9451 74.5819 96.2102 73.2539C96.8511 73.117 96.6207 73.5975 97.4788 73.8821C97.7074 73.6591 97.7136 72.7655 97.7535 72.3583Z" fill="#FDFDFE"/>
<path d="M97.7535 72.3583C96.9661 72.1023 95.7395 71.4351 95.0728 70.9393C94.876 70.4399 94.9044 70.6586 95.0107 70.0889C95.6882 69.2031 97.6354 69.4913 98.5019 69.9044L98.4781 70.0441C97.372 70.1663 96.1922 70.1927 95.0749 70.2362C95.6054 70.5667 97.6136 71.711 98.1763 71.7403C106.317 72.1666 114.535 71.8204 122.693 71.9493C125.732 71.9972 128.488 71.8593 131.517 71.612L132.45 71.7719L132.464 72.0173C132.626 71.9817 132.785 71.9562 132.95 71.941C132.496 72.0294 132.04 72.0584 131.742 72.403C130.606 72.5042 128.015 72.4511 127.232 72.9032C127.079 73.227 127.085 73.2579 127.051 73.6202L126.755 73.0583C126.528 72.9672 126.529 72.9784 126.282 72.9691C125.92 72.6518 125.884 72.6586 125.281 72.6574C122.006 72.6512 118.685 72.6928 115.412 72.7091C109.758 72.7409 104.103 72.6857 98.4504 72.5435C98.4576 73.5006 98.5318 77.1918 98.347 77.9427L98.0456 77.8613C97.7351 77.4176 97.894 76.7238 97.6994 75.9673L97.6689 75.8512C97.674 73.577 95.9451 74.5819 96.2102 73.2539C96.8511 73.117 96.6207 73.5975 97.4788 73.8821C97.7074 73.6591 97.7136 72.7655 97.7535 72.3583Z" fill="#9883CC"/>
<path d="M129.497 112.362C129.609 111.853 130.257 111.356 130.786 111.277C131.636 111.378 132.645 111.475 133.47 111.624C133.338 111.895 133.158 112.232 133.061 112.508L133.144 112.61C133.383 115.142 134.046 116.427 131.063 117.007L131.073 117.515C131.362 117.665 131.397 117.672 131.718 117.741C128.821 118.297 97.1 118.399 94.6466 117.832C94.175 117.822 93.6728 117.769 93.1994 117.728L93.3295 117.047L93.1763 116.937C94.9653 116.798 95.4463 117.27 97.1633 116.461C96.3625 116.653 95.1974 116.593 94.3924 116.431L94.2731 116.406C93.2431 116.27 92.3963 116.361 92.0703 115.244C92.1834 114.313 94.1327 112.259 94.7165 112.387C96.2426 112.714 98.5058 114.587 100.043 114.677C108.032 115.146 116.312 115.173 124.295 114.611C125.536 114.523 128.799 113.313 129.497 112.362Z" fill="#FDFDFE"/>
<path d="M94.2736 116.406C97.6128 116.181 102.787 116.332 106.234 116.331L130.828 116.363C130.328 116.451 129.829 116.546 129.331 116.647C129.614 116.883 130.676 116.894 131.063 117.007L131.073 117.515C131.363 117.665 131.397 117.672 131.718 117.741C128.822 118.297 97.1005 118.399 94.6471 117.832C94.1755 117.822 93.6733 117.769 93.1999 117.728L93.33 117.047L93.1768 116.937C94.9658 116.798 95.4468 117.27 97.1638 116.461C96.3629 116.653 95.1978 116.593 94.3929 116.431L94.2736 116.406Z" fill="#9883CC"/>
<path d="M93.3303 117.047C94.1142 117.068 95.1639 117.065 95.922 117.16C95.8319 117.407 95.7936 117.539 95.5851 117.719C95.2347 117.778 95.0019 117.815 94.6474 117.832C94.1758 117.822 93.6735 117.769 93.2002 117.728L93.3303 117.047Z" fill="#9883CC"/>
<path d="M132.396 112.314C132.624 112.366 132.862 112.399 133.061 112.508L133.144 112.61C133.383 115.142 134.047 116.427 131.063 117.007C130.675 116.894 129.614 116.883 129.331 116.647C129.829 116.546 130.327 116.451 130.827 116.363C131.387 116.222 132.17 115.941 132.738 115.757C132.595 114.622 132.426 113.454 132.396 112.314Z" fill="#9883CC"/>
<path d="M129.497 112.362C129.61 111.853 130.257 111.356 130.787 111.277C131.636 111.378 132.645 111.475 133.471 111.624C133.339 111.895 133.158 112.232 133.061 112.508C132.862 112.399 132.625 112.366 132.396 112.314C131.393 112.362 130.571 112.203 129.497 112.362Z" fill="#9883CC"/>
<path d="M44.3152 116.354C45.7037 116.565 49.0545 116.488 50.6258 116.489L62.0782 116.495L70.5385 116.494C77.6318 116.491 76.2352 115.765 81.7215 112.627C82.5856 112.133 91.4785 112.341 93.2319 112.347C92.4232 113.282 90.8104 114.615 91.2249 115.953C91.7509 116.721 92.2663 116.746 93.1766 116.937L93.3298 117.047L93.1997 117.728C91.282 117.596 88.4358 117.673 86.4634 117.674L74.2864 117.683C63.8153 117.689 53.0314 117.541 42.592 117.71L42.583 117.4C43.008 116.939 43.7382 116.639 44.3152 116.354Z" fill="#FDFDFE"/>
<path d="M77.9236 26.5301C78.7128 26.5263 80.3794 26.4462 81.0558 26.6171L81.2335 26.9259C81.2975 27.4966 81.2461 29.0439 81.3651 29.2704L81.6682 29.1859C81.6932 31.8299 80.6051 37.1267 80.22 39.8674C79.3684 45.9277 78.5893 52.301 77.5994 58.3345L77.5615 59.3035L76.6707 59.2206C76.1446 59.2822 75.4139 59.2615 74.8682 59.2626C74.901 58.1483 75.0077 57.0628 75.1256 55.9561C75.9418 48.2997 76.3416 40.6209 77.3258 32.9811C77.6003 30.8488 77.591 28.6788 77.9236 26.5301Z" fill="#FDFDFE"/>
<path d="M76.876 57.6572L80.0703 34.8673C80.4414 32.1472 80.9112 29.7107 81.2329 26.9259C81.2969 27.4966 81.2455 29.0439 81.3645 29.2704L81.6676 29.1859C81.6926 31.8299 80.6045 37.1267 80.2194 39.8674C79.3678 45.9278 78.5887 52.301 77.5988 58.3345C77.3527 58.2767 77.2129 58.234 76.9743 58.1503L76.876 57.6572Z" fill="#9883CC"/>
<path d="M76.6699 59.2206C76.6718 58.914 76.8248 58.007 76.8758 57.6572L76.9741 58.1503C77.2127 58.2339 77.3525 58.2767 77.5986 58.3345L77.5607 59.3035L76.6699 59.2206Z" fill="#9883CC"/>
<path d="M40.9922 60.051C42.2655 60.1657 44.6011 60.0714 45.9744 60.071L55.9338 60.0744C65.3968 60.0781 75.4383 60.2036 84.8667 59.9961C84.9112 60.8635 84.9187 61.4832 84.8878 62.3506C82.6282 62.4327 80.3679 62.4991 78.1074 62.5498C74.7001 62.341 69.2929 62.5251 65.6943 62.5274L40.9993 62.5548L40.9922 60.051Z" fill="#FDFDFE"/>
<path d="M34.3594 131.803C33.0819 131.843 31.0117 132.134 29.8772 131.55C29.4495 131.331 29.2506 130.803 29.1224 130.369C28.5978 128.595 28.5605 118.467 29.4047 116.961C30.0143 115.873 31.5654 115.091 32.75 114.803C33.3522 114.656 40.3526 112.184 40.8945 112.5C40.2902 113.409 34.4833 114.5 34.3945 116C34.3058 117.5 34.2764 125.314 34.329 129.075L34.3594 131.803Z" fill="#FDFDFE"/>
<path d="M35.2454 131.077C37.5313 131.077 40.3117 131.002 42.5583 131.107L42.6148 131.222L43.0529 131.316C42.9638 131.518 42.8764 131.665 42.934 131.891C42.6817 132.814 42.7789 135.88 42.7958 137.051C41.9743 137.253 35.7421 137.141 34.4908 137.13C34.4771 136.114 34.4891 135.097 34.5267 134.081C34.7178 134.716 34.293 136.53 34.916 136.753C35.3368 136.02 35.2422 132.158 35.2454 131.077Z" fill="#9883CC"/>
<path d="M35.3913 132.013C36.8844 131.965 40.3012 131.777 41.6351 131.93C41.9948 132.213 41.8975 132.259 41.9982 132.821L41.9357 136.438C39.9202 136.323 37.3971 136.389 35.3418 136.393C35.3467 134.933 35.3632 133.473 35.3913 132.013Z" fill="#FDFDFE"/>
<path d="M42.6154 131.222L43.0535 131.316C42.9644 131.518 42.877 131.665 42.9346 131.891C42.6823 132.814 42.7795 135.88 42.7964 137.051C42.2871 136.959 41.9515 136.981 41.3271 136.843L41.3628 136.652L41.9359 136.438L41.9984 132.821C42.2329 131.944 41.7577 131.922 42.0311 131.322L42.6154 131.222Z" fill="#9883CC"/>
<path d="M97.9598 79.0057C98.6001 78.8313 104.484 79.2995 105.716 79.3052C111.091 79.3308 116.429 79.3355 121.818 79.2986C123.153 79.2895 125.733 78.873 127.054 79.1076C127.162 79.1268 127.667 79.724 127.789 79.8725C128.704 81.4099 129.203 83.1534 129.834 84.8375C133.007 93.3139 137.735 103.523 129.941 111.072C125.861 115.023 119.296 114.104 114.043 114.141C110.35 114.166 106.293 114.29 102.596 114.142C99.3408 114.043 96.2636 112.633 94.0634 110.231C91.5829 107.516 90.5129 103.71 90.6994 100.083C90.7802 98.6248 90.9985 97.1778 91.3513 95.761C92.2458 92.238 93.7404 88.5413 94.9857 85.1137C95.6621 83.2525 96.5502 80.2835 97.9598 79.0057Z" fill="#FDFDFE"/>
<path d="M38.623 26.5567C51.3227 26.3793 64.4439 26.5244 77.1739 26.5241C77.0984 28.4114 76.697 30.714 76.5507 32.6793C75.9473 40.7824 74.9325 48.669 74.4336 56.7809C74.3295 57.4875 74.2663 58.5367 74.2002 59.2725L43.5395 59.2985C42.7915 52.9714 41.8349 46.6706 40.6716 40.4065C40.0167 36.7001 39.4108 33.0194 38.915 29.2875C38.7904 28.3495 38.6332 27.5082 38.623 26.5567Z" fill="#FDFDFE"/>
<path d="M35.0576 26.5689L37.7977 26.5281L41.6198 50.9252C41.9291 52.9725 42.9474 57.7548 42.7641 59.5322C42.4811 59.4515 42.2614 59.3673 42.0176 59.1997C41.7461 59.013 35.513 29.1235 35.0576 26.5689Z" fill="#FDFDFE"/>
<path d="M161.704 137.352C158.936 135.238 157.302 132.884 156.106 129.595C154.638 125.55 154.824 121.089 156.624 117.181C159.557 110.955 163.833 110.411 169.893 108.579C175.43 106.906 180.368 104.16 186.13 106.936C191.816 109.676 195.409 115.543 195.11 121.865C195.032 123.548 194.122 125.759 194.609 127.105L194.629 127.164L195.046 127.565C195.231 128.098 195.421 128.82 195.788 129.221L196.133 129.328L195.872 129.729C195.937 129.832 196.039 130.009 196.11 130.097L196.077 130.543C197.177 132.366 198.233 135.773 197.698 137.869C197.366 139.214 196.508 140.37 195.315 141.076C191.301 143.446 185.223 140.06 181.93 137.674C181.598 137.433 180.89 136.89 180.673 136.568C179.882 136.454 176.782 137.93 175.874 138.353C176.944 138.642 181.072 139.203 180.89 140.813C180.729 142.24 177.991 141.666 177.174 142.408C177.835 142.954 178.209 142.772 178.224 143.773C176.856 146.677 167.356 145.755 164.606 145.537C158.771 145.073 152.96 145.928 147.151 145.347C146.35 145.267 145.526 144.897 145.059 144.224C144.57 141.331 151.684 141.876 152.535 140.564C152.168 140.311 151.922 140.205 151.774 139.795C152.408 137.935 159.84 137.471 161.704 137.352Z" fill="#9883CC"/>
<path d="M168.868 109.684C174.165 108.339 179.215 105.46 184.819 107.298C191.946 109.637 195.976 118.577 193.6 125.56C193.443 125.793 193.201 126.197 193.003 126.365C194.113 126.714 194.683 129.071 195.268 130.048C195.865 130.2 195.649 130.074 196.078 130.543C197.178 132.366 198.234 135.773 197.698 137.869C197.366 139.214 196.508 140.37 195.315 141.076C191.301 143.446 185.223 140.06 181.93 137.674C181.598 137.433 180.891 136.89 180.674 136.568C180.459 136.08 179.723 135.824 179.22 135.284L179.254 135.02L179.615 134.78C179.605 134.578 180.195 133.609 180.366 133.277C180.947 132.141 181.218 130.852 181.739 129.758C181.806 129.565 181.927 129.417 182.047 129.249C181.758 128.557 182.213 126.137 182.126 125.188C181.917 122.886 181.124 119.97 179.993 117.972C177.091 112.844 174.13 111.295 168.868 109.684Z" fill="#FDFDFE"/>
<path d="M186.093 133.633C189.99 131.97 190.017 129.387 192.015 126.259C192.397 125.662 192.925 125.653 193.6 125.56C193.442 125.793 193.2 126.197 193.003 126.365C194.113 126.714 194.682 129.071 195.268 130.048C195.865 130.2 195.648 130.074 196.077 130.543C197.178 132.365 198.233 135.773 197.698 137.869C197.366 139.214 196.508 140.37 195.315 141.076C191.301 143.446 185.223 140.06 181.93 137.674C181.598 137.433 180.89 136.89 180.674 136.568C180.458 136.08 179.723 135.824 179.22 135.284L179.254 135.02L179.615 134.78C179.605 134.578 180.194 133.609 180.366 133.277C180.946 132.141 181.218 130.852 181.738 129.758C181.806 129.565 181.927 129.417 182.047 129.249C182.76 129.049 183.064 128.885 183.688 129.22C183.968 129.677 183.866 130.546 183.851 131.12C184.702 132.387 184.981 132.647 186.093 133.633Z" fill="#FDFDFE"/>
<path d="M186.093 133.633C189.99 131.97 190.017 129.387 192.015 126.259C192.397 125.662 192.925 125.653 193.6 125.56C193.442 125.793 193.2 126.197 193.003 126.365C192.997 126.414 192.991 126.462 192.985 126.511C194.272 129.553 197.048 134.344 194.93 137.571C194.728 137.878 193.932 138.054 193.582 138.023C189.97 137.698 182.989 133.159 181.738 129.758C181.806 129.565 181.927 129.417 182.046 129.249C182.76 129.049 183.064 128.885 183.688 129.22C183.968 129.677 183.866 130.546 183.851 131.12C184.702 132.387 184.981 132.647 186.093 133.633Z" fill="#9883CC"/>
<path d="M190.747 130.946C191.664 131.519 193.839 135.658 192.518 136.725C191.75 136.916 190.86 136.482 190.161 136.156L186.665 134.211C188.645 133.207 189.166 132.442 190.747 130.946Z" fill="#FDFDFE"/>
<path d="M192.299 127.072C192.975 127.553 193.97 130.213 194.224 131.054C194.802 132.967 195.92 135.934 193.874 137.238C193.774 136.971 193.75 135.911 193.681 135.502C193.242 132.918 192.612 131.917 190.968 129.997C191.434 129.032 191.878 128.057 192.299 127.072Z" fill="#FDFDFE"/>
<path d="M195.268 130.048C195.865 130.2 195.648 130.074 196.077 130.543C197.178 132.366 198.233 135.773 197.698 137.869C197.366 139.214 196.508 140.37 195.315 141.076C191.301 143.446 185.223 140.06 181.93 137.674C181.598 137.433 180.89 136.89 180.674 136.568C180.458 136.08 179.723 135.824 179.22 135.284L179.254 135.02L179.615 134.78C179.922 134.983 180.196 135.258 180.478 135.494C182.319 137.038 184.379 138.441 186.529 139.503C189.535 140.989 194.932 142.288 196.713 138.398C197.81 136.001 196.104 132.352 195.268 130.048Z" fill="#9883CC"/>
<path d="M166.44 112.56C167.839 112.257 170.111 112.828 171.495 113.154C167.582 119.763 168.836 126.334 174.684 131.192C174.503 131.608 174.007 131.402 173.36 131.827C172.972 131.819 172.484 133.27 172.528 133.247C170.94 134.083 166.027 133.602 168.413 136.661C167.283 138.021 164.465 136.395 163.386 135.656C155.244 130.085 155.262 114.194 166.44 112.56Z" fill="#FDFDFE"/>
<path d="M178.145 131.627L178.248 131.76C177.763 134.038 174.853 135.572 173.333 137.024C173.018 137.326 173.051 137.697 173.109 138.077C173.978 139.188 179.534 139.457 180.228 140.633C179.313 141.78 176.856 141.266 175.99 141.892L175.962 142.194C176.275 142.769 177.202 143.361 177.761 143.775C173.461 145.819 165.798 144.563 160.949 144.572C158.106 144.577 155.26 144.612 152.411 144.662C151.012 144.671 146.754 144.807 145.663 143.873C146.119 142.354 152.77 142.233 154.28 141.129C154.352 140.427 153.318 140.562 152.908 139.794C154.35 137.792 165.717 138.731 168.269 137.52C168.505 137.408 168.864 137.265 169.114 137.149C169.375 136.776 169.328 136.954 169.275 136.476C168.952 135.908 168.471 135.601 167.952 135.209C168.837 134.905 173.298 133.967 173.497 133.783C173.442 133.333 173.401 133.197 173.591 132.769C174.548 131.832 176.776 131.768 178.145 131.627Z" fill="#FDFDFE"/>
<path d="M172.131 113.656C178.025 116.738 180.376 123.031 179.168 129.411C178.941 130.613 178.841 130.853 177.683 131.055C176.508 131.175 176.32 131.27 175.321 130.678C172.992 129.297 171.027 126.235 170.431 123.607C169.517 119.572 170.12 117.09 172.131 113.656Z" fill="#FDFDFE"/>
<path d="M166.493 110.641C170.674 110.288 174.514 112.281 177.232 115.371C180.005 118.552 181.422 122.693 181.181 126.906C180.892 131.323 179.209 134.913 175.651 137.528C174.887 138.089 174.626 138.146 173.687 138.08L173.598 137.907C173.948 137.398 174.788 136.967 175.303 136.596C180.697 132.703 181.638 125.042 178.713 119.337C176.717 115.439 174.117 113.329 170.06 111.926C167.766 111.185 165.088 111.542 163.05 112.66C154.66 117.261 155.114 129.373 161.745 135.327C162.165 135.704 164.333 137.246 164.363 137.305C163.605 137.63 162.413 136.944 161.832 136.491C152.951 129.569 153.955 112.62 166.493 110.641Z" fill="#FDFDFE"/>
<path d="M201.418 109.307C201.859 109.066 202.3 108.819 202.753 108.602C206.713 106.702 220.66 106.823 224.841 108.33C225.621 108.61 226.346 108.861 226.712 109.638C226.917 114.535 226.32 120.151 223.658 124.36C225.563 124.381 234.172 125.592 234.036 128.304C233.92 130.668 226.682 131.648 224.714 131.829C224.095 132.087 222.747 132.683 222.152 132.842C221.89 132.912 221.626 132.976 221.359 133.033C217.335 133.896 210.687 133.71 206.585 132.97C205.619 132.795 203.937 131.892 202.742 131.666C200.834 131.304 197.705 131.132 196.109 130.097C196.039 130.009 195.937 129.832 195.872 129.729L196.133 129.328L195.788 129.221C195.421 128.82 195.231 128.098 195.046 127.565L194.629 127.164C196.344 125.386 201.933 124.573 204.434 124.368L203.836 123.296C201.672 119.229 201.408 113.793 201.418 109.307Z" fill="#FDFDFE"/>
<path d="M204.444 122.704C205.246 124.319 206.809 126.758 208.683 127.256C211.559 128.02 217.189 128.181 219.992 126.987C220.79 126.647 222.29 124.904 222.801 124.182C223.067 124.244 223.393 124.333 223.658 124.36C225.563 124.381 234.172 125.592 234.036 128.304C233.92 130.668 226.682 131.648 224.714 131.829C224.095 132.087 222.747 132.683 222.152 132.842C221.89 132.912 221.626 132.976 221.359 133.033C217.335 133.896 210.687 133.71 206.585 132.97C205.619 132.795 203.937 131.892 202.742 131.666C200.834 131.304 197.705 131.132 196.109 130.097C196.039 130.009 195.937 129.832 195.872 129.729L196.133 129.328L195.788 129.221C195.421 128.82 195.231 128.098 195.046 127.565L194.629 127.164C196.344 125.386 201.933 124.573 204.434 124.368L203.836 123.296L204.444 122.704Z" fill="#FDFDFE"/>
<path d="M204.444 122.704C205.246 124.319 206.809 126.758 208.683 127.256C211.559 128.02 217.189 128.181 219.992 126.987C220.79 126.647 222.29 124.904 222.801 124.182C223.067 124.244 223.393 124.333 223.658 124.36C225.563 124.381 234.172 125.592 234.036 128.304C233.92 130.668 226.682 131.648 224.714 131.829L224.005 131.1C226.096 130.845 232.038 130.186 233.193 128.548C233.572 126.061 224.864 125.317 223.081 125.13C222.509 125.725 221.296 126.847 220.89 127.564C220.89 127.676 220.875 128.402 220.824 128.451C218.211 130.937 209.493 129.707 207.238 128.83C206.778 126.839 206.491 126.771 204.991 125.23C201.421 125.387 198.19 125.853 195.046 127.565L194.629 127.164C196.344 125.386 201.933 124.573 204.434 124.368L203.836 123.296L204.444 122.704Z" fill="#9883CC"/>
<path d="M207.723 127.747C210.592 128.498 214.128 128.723 217.072 128.35C217.74 128.266 219.522 127.647 220.028 127.93L219.947 128.319C218.085 129.396 208.258 129.849 207.723 127.747Z" fill="#9883CC"/>
<path d="M196.133 129.328C201.113 131.5 209.614 131.379 215.092 131.515C216.604 131.552 218.681 131.31 220.121 131.371C220.665 131.39 221.607 131.316 221.986 131.56L221.936 131.827L221.774 132.373L222.153 132.842C221.89 132.912 221.626 132.976 221.359 133.033C217.335 133.896 210.687 133.71 206.585 132.97C205.619 132.795 203.937 131.892 202.742 131.666C200.834 131.304 197.705 131.132 196.109 130.097C196.039 130.009 195.937 129.832 195.872 129.729L196.133 129.328Z" fill="#9883CC"/>
<path d="M221.936 131.827L221.774 132.373C217.216 132.877 213.258 133.119 208.657 132.615C207.92 132.534 206.724 132.565 206.144 132.19L206.104 131.953C206.405 131.822 212.693 132.297 213.77 132.236C216.384 132.086 219.305 132.312 221.936 131.827Z" fill="#9883CC"/>
<path d="M220.121 131.371C220.863 131.241 223.153 131.157 224.005 131.1L224.715 131.829C224.095 132.087 222.747 132.683 222.153 132.842L221.774 132.373L221.936 131.827L221.986 131.56C221.608 131.316 220.665 131.39 220.121 131.371Z" fill="#9883CC"/>
<path d="M201.418 109.307C201.859 109.066 202.3 108.819 202.753 108.602C206.714 106.702 220.66 106.823 224.841 108.33C225.621 108.61 226.347 108.861 226.712 109.638L226.582 110.5L226.394 110.63L226.057 110.373C226.003 110.447 225.901 110.567 225.869 110.645C221.909 112.588 206.745 112.19 202.296 110.741C202.319 115.163 202.564 118.645 204.444 122.704L203.837 123.296C201.672 119.229 201.408 113.793 201.418 109.307Z" fill="#9883CC"/>
<path d="M212.854 108.004C214.739 107.847 224.654 108.334 225.489 109.772L225.299 110.051C223.606 110.945 217.803 111.124 215.765 111.183C213.589 111.198 203.952 111.275 202.706 109.709L202.858 109.446C204.508 108.516 210.765 108.114 212.854 108.004Z" fill="#FDFDFE"/>
<path d="M226.712 109.638C226.917 114.535 226.32 120.151 223.658 124.36C223.393 124.333 223.067 124.244 222.802 124.182C223.281 123.288 223.728 122.658 224.133 121.68C225.4 118.619 226.145 113.921 225.869 110.645C225.901 110.567 226.003 110.447 226.058 110.373L226.394 110.63L226.583 110.5L226.712 109.638Z" fill="#9883CC"/>
<path d="M182.679 141.896C184.142 141.765 186.158 141.682 187.134 143.036C187.224 143.925 186.345 144.174 185.57 144.345C184.216 144.382 182.76 144.381 181.619 143.519C181.363 143.052 181.388 143.25 181.485 142.774C181.783 142.319 182.199 142.154 182.679 141.896Z" fill="#9883CC"/>
<path d="M182.9 142.455C183.926 142.403 185.55 142.273 186.263 143.096C186.163 143.476 186.188 143.36 185.789 143.656C185.382 143.673 184.975 143.681 184.569 143.68C183.798 143.671 182.788 143.658 182.254 143.115C182.35 142.692 182.437 142.759 182.9 142.455Z" fill="#FDFDFE"/>
<path d="M132.895 108.5C132.895 109.021 130.56 112.263 124.895 114C121.559 115.023 116.09 115 111.895 115C106.784 115 101.373 114.543 97.8945 113.199C93.6675 111.565 91.8945 108.954 91.8945 108.5C91.8945 107.672 101.073 107 112.395 107C123.716 107 132.895 107.672 132.895 108.5Z" fill="#9883CC"/>
<mask id="path-99-inside-1_329_4482" fill="white">
<path d="M112.395 110C123.716 110 132.395 108.828 132.395 108C132.395 107.172 122.716 93.5 111.395 93.5C100.073 93.5 92.8945 107.172 92.8945 108C92.8945 108.828 101.073 110 112.395 110Z"/>
</mask>
<path d="M132.895 108C132.561 108 132.228 108 131.895 108C131.952 107.669 132 107.778 131.948 107.776C131.903 107.798 131.838 107.825 131.764 107.85C131.619 107.901 131.444 107.947 131.275 107.985C130.925 108.066 130.564 108.127 130.198 108.183C129.465 108.293 128.715 108.375 127.968 108.445C122.81 108.896 117.593 108.988 112.395 109C112.395 109 112.395 109 112.395 109C106.047 108.993 98.6038 109.098 93.3945 108C93.3945 108 93.3945 108 93.3945 108C96.5745 101.294 103.132 93.9366 111.395 93.8384C118.707 93.9221 124.94 99.0173 129.636 104.404C130.59 105.546 131.653 106.838 132.207 108C132.332 108 132.457 108 132.582 108C131.925 106.41 130.931 105.354 129.965 104.127C125.275 98.6422 119.071 93.3609 111.395 93.1616C102.637 93.3484 96.0215 100.215 92.3945 108C92.3945 108 92.3945 108 92.3945 108C99.3621 111.286 105.693 110.665 112.395 111C112.395 111 112.395 111 112.395 111C117.66 110.988 122.928 110.695 128.152 109.833C128.911 109.702 129.673 109.555 130.432 109.373C130.813 109.28 131.189 109.181 131.578 109.053C131.766 108.99 131.965 108.919 132.167 108.826C132.272 108.777 132.368 108.73 132.497 108.645C132.561 108.6 132.612 108.565 132.7 108.474C132.765 108.401 132.894 108.248 132.895 108ZM131.895 108H132.895H132.582H132.207H131.895Z" fill="white" mask="url(#path-99-inside-1_329_4482)"/>
<path d="M74.8945 111.5V83" stroke="#9883CC" stroke-linecap="round"/>
</g>
<defs>
<clipPath id="clip0_329_4482">
<rect width="267.789" height="151" fill="white"/>
</clipPath>
</defs>
</svg>
