<svg width="24" height="16" viewBox="0 0 24 16" fill="none" xmlns="http://www.w3.org/2000/svg">
<rect x="0.5" y="0.5" width="23" height="15" rx="1.5" stroke="#100118"/>
<path d="M9 3H12.799C13.4322 3 13.9911 3.13596 14.4757 3.40789C14.9604 3.67982 15.3356 4.06579 15.6013 4.56579C15.8671 5.06579 16 5.64474 16 6.30263C16 6.96053 15.8671 7.54386 15.6013 8.05263C15.3356 8.55263 14.9604 8.94298 14.4757 9.22368C13.9911 9.49561 13.4322 9.63158 12.799 9.63158H10.9464V13H9V3ZM12.7755 7.57895C13.1586 7.57895 13.4673 7.46053 13.7018 7.22368C13.9363 6.98684 14.0536 6.67982 14.0536 6.30263C14.0536 5.92544 13.9363 5.62281 13.7018 5.39474C13.4673 5.16667 13.1586 5.05263 12.7755 5.05263H10.9464V7.57895H12.7755Z" fill="black"/>
</svg>
